<?xml version="1.0" encoding="utf-8"?>
<!-- Generator: Adobe Illustrator 25.1.0, SVG Export Plug-In . SVG Version: 6.00 Build 0)  -->
<svg version="1.1" id="Capa_1" xmlns="http://www.w3.org/2000/svg" xmlns:xlink="http://www.w3.org/1999/xlink" x="0px" y="0px"
	 viewBox="0 0 504.2 144.3" style="enable-background:new 0 0 504.2 144.3;" xml:space="preserve">
<style type="text/css">
	.st0{fill:#FFFFFF;}
</style>
<g>
	<g>
		<g>
			<path class="st0" d="M46.5,51c0-1.5-0.9-2.6-2.8-2.6H5.2c-1.9,0-2.8,1.2-2.8,2.6c0,1.5,0.9,2.6,2.8,2.6h5.6
				c1.9,0,3.4,1.5,3.4,3.4v35.1c0,1.9,1.5,3.4,3.4,3.4h13.9c1.9,0,3.4-1.5,3.4-3.4V57c0-1.9,1.5-3.4,3.4-3.4h5.6
				C45.5,53.6,46.5,52.4,46.5,51z"/>
		</g>
		<g>
			<path class="st0" d="M134,48.3c-1.3,0-2.4,0.9-2.4,2.8V59c0,1.9-1.4,2.8-3.2,2.2L97.1,49.5c-1.7-0.6-4.6-1.4-5.5-1.2
				c-1.3,0.3-2.4,1.5-2.4,3.4v41c0,1.9,1.1,2.8,2.4,2.8c1.3,0,2.4-0.9,2.4-2.8v-7.9c0-1.9,1.4-2.8,3.2-2.2l31.4,11.7
				c1.7,0.7,4.2,1.2,5.5,1.2c1.3,0,2.4-1.5,2.4-3.4v-41C136.4,49.3,135.4,48.3,134,48.3z"/>
		</g>
		<g>
			<path class="st0" d="M237.7,71.9c0,13.3-10.8,24.1-24.1,24.1c-13.3,0-24.1-10.8-24.1-24.1c0-13.3,10.8-24.1,24.1-24.1
				C227,47.8,237.7,58.6,237.7,71.9z"/>
		</g>
		<g>
			<path class="st0" d="M165,64.6c-1,0-1.9-0.9-1.9-1.9v-13c0-1,0-1.9-0.1-1.9c0,0,0,0,0,0c-13.3,0-24.1,10.8-24.1,24.1
				c0,13.3,10.8,24.1,24.1,24.1c13.3,0,24.1-10.8,24.1-24.1c0-2.6-0.7-5.5-0.7-5.5c-0.2-1-1.3-1.8-2.3-1.8H165z"/>
		</g>
		<g>
			<path class="st0" d="M65.2,89.4c1.5,0,3.3,1.1,4,2.4l0.7,1.3c0.7,1.3,2.5,2.4,4,2.4h11.8c1.5,0,2.1-1.1,1.4-2.4L63.9,49.2
				c-0.7-1.3-1.8-1.3-2.5,0L38.2,93.1c-0.7,1.3,0,2.4,1.5,2.4h0.9c1.5,0,2.9-0.4,3.6-1.7l1-2c0.7-1.3,2.5-2.4,4-2.4H65.2z"/>
		</g>
	</g>
	<g>
		<path class="st0" d="M289.2,87.4c-2.5,2.6-6.6,4-11.4,4c-8.7,0-14.9-3.8-16-10.9h2.5c1.2,5.6,6.2,8.5,13.5,8.5
			c4.2,0,7.7-1.3,9.7-3.4c1.2-1.3,1.8-3,1.7-4.8c-0.1-4.2-3.6-6.4-12-7.6c-6-0.9-13.4-1.9-13.5-8.7c0-4.7,4.4-9.4,13.1-9.4
			c7.7,0,12.7,3.4,14.2,9.7h-2.5c-1.4-4.6-5.4-7.3-11.5-7.3c-6.2,0-10.7,3-10.6,7c0.1,4,3.7,5.2,11.3,6.3c7.2,1.1,13.8,3,14.2,9.9
			C291.7,83.3,290.9,85.7,289.2,87.4z"/>
		<path class="st0" d="M329.3,73.5c0,9.9-7.8,18-17.3,18c-9.5,0-17.3-8.1-17.3-18c0-10.1,7.8-18.3,17.3-18.3
			C321.5,55.2,329.3,63.4,329.3,73.5z M326.7,73.5c0-8.8-6.6-15.9-14.8-15.9c-8.1,0-14.8,7.1-14.8,15.9c0,8.6,6.6,15.6,14.8,15.6
			C320.1,89.1,326.7,82.1,326.7,73.5z"/>
		<path class="st0" d="M337.6,58.6v32.1H335V58.6h-4.7v-2.5h4.7v-2.4c0-7.7,4.4-12.6,11.8-11.9v2.3c-6.5-0.4-9.3,3.6-9.3,9.8v2.2
			h9.3v2.5H337.6z"/>
		<path class="st0" d="M355.9,78.7c0,5.9,2.8,9.9,9.3,9.7v2.3c-7.5,0.7-11.8-4.2-11.8-11.9V58.6h-4.7v-2.5h4.7v-7.4h2.5v7.4h9.3v2.5
			h-9.3V78.7z"/>
		<path class="st0" d="M401.4,90.7h-2.7l-9.3-30.5l-9.3,30.5h-2.7L367,56.1h2.6l9.3,30.5l9.3-30.5h2.7l9.3,30.5l9.3-30.5h2.6
			L401.4,90.7z"/>
		<path class="st0" d="M441.5,90.7c-0.6-1.3-0.9-2.9-0.9-5V85c-2.8,3.9-8.1,6.3-14.9,6.3c-6,0-12.6-3-12.6-9.7
			c0-7.9,7.3-9.7,14.7-10.3c7.7-0.7,12.8-1.5,12.8-5.8c0-6.4-6-7.9-11.1-7.9c-6.3,0-10.5,2.6-11.9,7.3h-2.6
			c1.5-6.2,6.7-9.7,14.5-9.7c8.7,0,13.6,3.8,13.6,10.3V85c0,1.7,0.5,4.3,1,5.6H441.5z M440.6,70.2c-2.7,2.5-7.7,3-12.5,3.4
			c-8.9,0.9-12.3,3.2-12.3,8c0,5.7,6.4,7.2,9.9,7.2c7.5,0,14.9-3.4,14.9-10.7V70.2z"/>
		<path class="st0" d="M467.9,57.6c-4.6-0.4-8.1,0.9-10.2,3c-2.5,2.2-3.8,5.6-3.8,9.2v20.9h-2.6V56.1h2.6v5.8
			c0.6-1.1,1.3-2.2,2.3-3.1c3-2.7,7-4,11.7-3.4V57.6z"/>
		<path class="st0" d="M469.4,73.3c0.1,9,6.8,15.6,15.2,15.6c8.1,0,11.8-4.5,13.5-9.1h2.6c-2.4,7.5-8,11.5-16.1,11.5
			c-9.9,0-17.7-7.9-17.7-18s7.7-18.3,17.3-18.3c10.3,0,17.4,9.4,17.2,18.1H469.4z M498.8,70.9c-1.2-7.5-7.3-13.1-14.6-13.1
			c-7.3,0-13.4,5.6-14.5,13.1H498.8z"/>
	</g>
</g>
</svg>
